<?xml version="1.0" standalone="no"?>
<!DOCTYPE svg PUBLIC "-//W3C//DTD SVG 20010904//EN"
 "http://www.w3.org/TR/2001/REC-SVG-20010904/DTD/svg10.dtd">
<svg version="1.0" xmlns="http://www.w3.org/2000/svg"
 width="500.000000pt" height="500.000000pt" viewBox="0 0 500.000000 500.000000"
 preserveAspectRatio="xMidYMid meet">
<metadata>
Created by potrace 1.11, written by Peter Selinger 2001-2013
</metadata>
<g transform="translate(0.000000,500.000000) scale(0.100000,-0.100000)"
fill="#000000" stroke="none">
<path d="M3399 2861 c-43 -14 -85 -50 -110 -94 -21 -36 -24 -55 -24 -137 0
-79 4 -102 22 -136 44 -82 122 -122 218 -110 100 12 172 93 182 205 11 117
-20 200 -93 250 -37 26 -146 38 -195 22z m133 -108 c31 -36 42 -69 41 -129 -1
-95 -35 -144 -100 -144 -62 0 -96 56 -95 156 1 88 34 134 97 134 27 0 47 -6
57 -17z"/>
<path d="M3895 2851 c-53 -24 -111 -90 -125 -143 -7 -23 -10 -72 -8 -109 7
-135 93 -214 233 -214 56 0 79 5 113 24 l42 25 0 113 0 113 -90 0 -90 0 0 -45
0 -45 41 0 40 0 -3 -42 c-3 -42 -4 -43 -40 -46 -79 -7 -129 49 -129 141 0 65
12 99 47 126 33 26 99 28 133 5 23 -16 24 -16 50 17 14 18 26 38 26 43 0 5
-20 20 -44 33 -55 29 -138 31 -196 4z"/>
<path d="M980 2625 l0 -235 60 0 60 0 0 68 c1 55 5 72 24 96 l24 29 44 -78
c66 -119 64 -117 131 -113 l57 3 -80 133 c-44 73 -80 139 -80 145 0 7 30 50
66 97 l66 85 -52 3 c-29 2 -58 1 -65 -2 -7 -2 -39 -42 -71 -88 l-59 -83 -3 88
-3 87 -59 0 -60 0 0 -235z"/>
<path d="M1430 2625 l0 -235 155 0 155 0 0 50 0 50 -95 0 -95 0 0 50 0 50 75
0 75 0 0 45 0 45 -75 0 -75 0 0 45 0 45 90 0 90 0 0 45 0 45 -150 0 -150 0 0
-235z"/>
<path d="M1800 2815 l0 -45 60 0 60 0 0 -190 0 -190 60 0 60 0 0 190 0 190 65
0 65 0 0 45 0 45 -185 0 -185 0 0 -45z"/>
<path d="M2256 2643 c-37 -120 -69 -226 -72 -235 -5 -16 2 -18 51 -18 36 0 57
4 60 13 2 6 9 31 15 55 l11 42 69 0 69 0 11 -42 c6 -24 13 -49 15 -55 3 -9 25
-13 63 -13 l59 0 -72 233 -72 232 -70 3 -69 3 -68 -218z m161 32 l20 -85 -47
0 -47 0 20 85 c12 47 24 85 27 85 3 0 15 -38 27 -85z"/>
<path d="M2900 2625 l0 -235 150 0 150 0 0 50 0 50 -90 0 -90 0 0 185 0 185
-60 0 -60 0 0 -235z"/>
<path d="M2632 2573 l3 -38 88 -3 87 -3 0 41 0 40 -91 0 -90 0 3 -37z"/>
</g>
</svg>
